<?xml version="1.0" encoding="utf-8"?>
<svg x="0pt" y="0pt" width="24pt" height="24pt" viewBox="0 0 24 24" xmlns="http://www.w3.org/2000/svg" xmlns:xlink="http://www.w3.org/1999/xlink">
  <!--Generated by AMDN-->
  <g id="Layer 1">
    <path id="Path 33" style="fill:none;opacity:1;stroke:#000000;stroke-linecap:round;stroke-linejoin:miter;stroke-miterlimit:10;stroke-opacity:1;stroke-width:1;" d="M21,6 C21,6,10,6,10,6"/>
    <path id="Path 34" style="fill:none;opacity:1;stroke:#000000;stroke-linecap:round;stroke-linejoin:miter;stroke-miterlimit:10;stroke-opacity:1;stroke-width:1;" d="M21,12 C21,12,10,12,10,12"/>
    <path id="Path 35" style="fill:none;opacity:1;stroke:#000000;stroke-linecap:round;stroke-linejoin:miter;stroke-miterlimit:10;stroke-opacity:1;stroke-width:1;" d="M21,18 C21,18,10,18,10,18"/>
    <path id="Path" style="fill:none;opacity:1;stroke:#000000;stroke-linecap:round;stroke-linejoin:round;stroke-miterlimit:10;stroke-opacity:1;stroke-width:1;" d="M5.5,5 C6.05228,5,6.5,5.44772,6.5,6 C6.5,6.55228,6.05228,7,5.5,7 C4.94772,7,4.5,6.55228,4.5,6 C4.5,5.44772,4.94772,5,5.5,5 z"/>
    <path id="Path Copy" style="fill:none;opacity:1;stroke:#000000;stroke-linecap:round;stroke-linejoin:round;stroke-miterlimit:10;stroke-opacity:1;stroke-width:1;" d="M5.5,11 C6.05228,11,6.5,11.4477,6.5,12 C6.5,12.5523,6.05228,13,5.5,13 C4.94772,13,4.5,12.5523,4.5,12 C4.5,11.4477,4.94772,11,5.5,11 z"/>
    <path id="Path Copy 1" style="fill:none;opacity:1;stroke:#000000;stroke-linecap:round;stroke-linejoin:round;stroke-miterlimit:10;stroke-opacity:1;stroke-width:1;" d="M5.5,17 C6.05228,17,6.5,17.4477,6.5,18 C6.5,18.5523,6.05228,19,5.5,19 C4.94772,19,4.5,18.5523,4.5,18 C4.5,17.4477,4.94772,17,5.5,17 z"/>
  </g>
</svg>
