<?xml version="1.0" encoding="utf-8"?>
<svg x="0pt" y="0pt" width="24pt" height="24pt" viewBox="0 0 24 24" xmlns="http://www.w3.org/2000/svg" xmlns:xlink="http://www.w3.org/1999/xlink">
  <!--Generated by AMDN-->
  <g id="Layer 1">
    <path id="Path 33" style="fill:none;opacity:1;stroke:#000000;stroke-linecap:round;stroke-linejoin:miter;stroke-miterlimit:10;stroke-opacity:1;stroke-width:1;" d="M21,6 C21,6,10,6,10,6"/>
    <path id="Path 34" style="fill:none;opacity:1;stroke:#000000;stroke-linecap:round;stroke-linejoin:miter;stroke-miterlimit:10;stroke-opacity:1;stroke-width:1;" d="M21,12 C21,12,10,12,10,12"/>
    <path id="Path 35" style="fill:none;opacity:1;stroke:#000000;stroke-linecap:round;stroke-linejoin:miter;stroke-miterlimit:10;stroke-opacity:1;stroke-width:1;" d="M21,18 C21,18,10,18,10,18"/>
    <path id="Path" style="fill:none;opacity:1;stroke:#000000;stroke-linecap:round;stroke-linejoin:round;stroke-miterlimit:10;stroke-opacity:1;stroke-width:1;" d="M4.5,5 C4.5,5,5.5,4,5.5,4 C5.5,4,5.5,8,5.5,8"/>
    <path id="Path" style="fill:none;opacity:1;stroke:#000000;stroke-linecap:round;stroke-linejoin:round;stroke-miterlimit:10;stroke-opacity:1;stroke-width:1;" d="M4.5,10 C4.5,10,5.501,10,5.501,10 C6.05273,10,6.5,10.4473,6.5,10.999 C6.5,10.999,6.5,11.001,6.5,11.001 C6.5,11.5527,6.05273,12,5.501,12 C5.501,12,5.499,12,5.499,12 C4.94727,12,4.5,12.4473,4.5,12.999 C4.5,12.999,4.5,14,4.5,14 C4.5,14,6.5,14,6.5,14"/>
    <path id="Path" style="fill:none;opacity:1;stroke:#000000;stroke-linecap:round;stroke-linejoin:round;stroke-miterlimit:10;stroke-opacity:1;stroke-width:1;" d="M4.5,16 C4.5,16,5.501,16,5.501,16 C6.05273,16,6.5,16.4473,6.5,16.999 C6.5,16.999,6.5,17.001,6.5,17.001 C6.5,17.5527,6.05273,18,5.501,18 C5.501,18,4.5,18,4.5,18 C4.5,18,5.501,18,5.501,18 C6.05273,18,6.5,18.4473,6.5,18.999 C6.5,18.999,6.5,19.001,6.5,19.001 C6.5,19.5527,6.05273,20,5.501,20 C5.501,20,4.5,20,4.5,20"/>
  </g>
</svg>
