<?xml version="1.0" encoding="utf-8"?>
<svg x="0pt" y="0pt" width="24pt" height="24pt" viewBox="0 0 24 24" xmlns="http://www.w3.org/2000/svg" xmlns:xlink="http://www.w3.org/1999/xlink">
  <!--Generated by AMDN-->
  <g id="Layer_1">
    <g id="Group">
      <path id="Path" style="fill:none;opacity:1;stroke:#000000;stroke-linecap:round;stroke-linejoin:round;stroke-miterlimit:10;stroke-opacity:1;stroke-width:2;" d="M16.2298,4.73463 C16.2298,4.73463,19.4246,7.90381,19.4246,7.90381 C19.4246,7.90381,14.4621,15.6948,14.4621,15.6948 C14.4621,15.6948,8.45166,9.68438,8.45166,9.68438 C8.45166,9.68438,16.2298,4.73463,16.2298,4.73463 z"/>
      <path id="Path-1" style="fill:none;opacity:1;stroke:#000000;stroke-linecap:round;stroke-linejoin:round;stroke-miterlimit:10;stroke-opacity:1;stroke-width:2;" d="M20.8388,9.31802 C20.8388,9.31802,14.4749,2.95406,14.4749,2.95406"/>
      <path id="Path_Copy" style="fill:none;opacity:1;stroke:#000000;stroke-linecap:round;stroke-linejoin:round;stroke-miterlimit:10;stroke-opacity:1;stroke-width:2;" d="M16.5962,17.8033 C16.5962,17.8033,6.6967,7.90381,6.6967,7.90381"/>
      <path id="Path-2" style="fill:none;opacity:1;stroke:#000000;stroke-linecap:round;stroke-linejoin:round;stroke-miterlimit:10;stroke-opacity:1;stroke-width:2;" d="M10.2322,11.4393 C10.2322,11.4393,5.98959,18.5104,5.98959,18.5104 C5.98959,18.5104,13.0607,14.2678,13.0607,14.2678"/>
    </g>
  </g>
</svg>
