<?xml version="1.0" encoding="utf-8"?>
<svg x="0px" y="0px" width="48px" height="48px" viewBox="0 0 48 48" xmlns="http://www.w3.org/2000/svg" xmlns:xlink="http://www.w3.org/1999/xlink">
  <!--Generated by AMDN-->
  <g id="Layer 1">
    <path id="Path Copy" style="fill:#9e9e9e;fill-opacity:1;fill-rule:nonzero;opacity:1;stroke:#000000;stroke-linecap:round;stroke-linejoin:round;stroke-miterlimit:10;stroke-opacity:1;stroke-width:2;" d="M38.3451,31.7026 C39.7788,34.3683,38.7801,37.6915,36.1144,39.1252 C36.1144,39.1252,36.1144,39.1252,36.1144,39.1252 C33.9161,40.3075,31.1756,39.4839,29.9933,37.2856 C29.9933,37.2856,29.9457,37.1972,29.9457,37.1972 C29.5847,36.5259,28.7479,36.2744,28.0766,36.6354 C28.0766,36.6354,28.0766,36.6354,28.0766,36.6354 C25.8295,37.844,23.0281,37.0021,21.8195,34.755 C21.8195,34.755,20.2184,31.7782,20.2184,31.7782 C18.9947,29.503,19.8472,26.6666,22.1224,25.4429 C22.1224,25.4429,27.3192,22.6478,27.3192,22.6478 C29.9562,21.2296,33.2437,22.2175,34.662,24.8545 C34.662,24.8545,38.3451,31.7026,38.3451,31.7026 z"/>
    <path id="Path Copy" style="fill:#9e9e9e;fill-opacity:1;fill-rule:nonzero;opacity:1;stroke:#000000;stroke-linecap:round;stroke-linejoin:round;stroke-miterlimit:10;stroke-opacity:1;stroke-width:2;" d="M10.6549,31.7026 C9.22117,34.3683,10.2199,37.6915,12.8856,39.1252 C12.8856,39.1252,12.8856,39.1252,12.8856,39.1252 C15.0839,40.3075,17.8244,39.4839,19.0067,37.2856 C19.0067,37.2856,19.0543,37.1972,19.0543,37.1972 C19.4153,36.5259,20.2521,36.2744,20.9234,36.6354 C20.9234,36.6354,20.9234,36.6354,20.9234,36.6354 C23.1705,37.844,25.9719,37.0021,27.1805,34.755 C27.1805,34.755,28.7816,31.7782,28.7816,31.7782 C30.0052,29.503,29.1528,26.6666,26.8776,25.4429 C26.8776,25.4429,21.6808,22.6478,21.6808,22.6478 C19.0438,21.2296,15.7563,22.2175,14.338,24.8545 C14.338,24.8545,10.6549,31.7026,10.6549,31.7026 z"/>
    <path id="right-foot" style="fill:none;opacity:1;stroke:#000000;stroke-linecap:round;stroke-linejoin:round;stroke-miterlimit:10;stroke-opacity:1;stroke-width:2;" d="M32.5,43 C32.5,43,30.5,41,30.5,41 C30.5,41,28.5,43,28.5,43"/>
    <path id="left-foot" style="fill:none;opacity:1;stroke:#000000;stroke-linecap:round;stroke-linejoin:round;stroke-miterlimit:10;stroke-opacity:1;stroke-width:2;" d="M20.5,43 C20.5,43,18.5,41,18.5,41 C18.5,41,16.5,43,16.5,43"/>
    <path id="body" style="fill:#e4e4e4;fill-opacity:1;fill-rule:evenodd;opacity:1;stroke:#000000;stroke-linecap:round;stroke-linejoin:round;stroke-miterlimit:10;stroke-opacity:1;stroke-width:2;" d="M16.5,29 C16.5,29,32.5,29,32.5,29 C32.5,29,32.5,36,32.5,36 C32.5,37.6569,31.1569,39,29.5,39 C29.5,39,19.5,39,19.5,39 C17.8431,39,16.5,37.6569,16.5,36 C16.5,36,16.5,29,16.5,29 z"/>
    <g id="Group">
      <path id="head" style="fill:#ffffff;fill-opacity:1;fill-rule:evenodd;opacity:1;stroke:#000000;stroke-linecap:round;stroke-linejoin:round;stroke-miterlimit:10;stroke-opacity:1;stroke-width:2;" d="M9.5,10.1818 C9.5,7.87226,11.2909,6,13.5,6 C13.5,6,35.5,6,35.5,6 C37.7091,6,39.5,7.87226,39.5,10.1818 C39.5,10.1818,39.5,24.8182,39.5,24.8182 C39.5,27.1277,37.7091,29,35.5,29 C35.5,29,13.5,29,13.5,29 C11.2909,29,9.5,27.1277,9.5,24.8182 C9.5,24.8182,9.5,10.1818,9.5,10.1818 z"/>
      <g id="face">
        <path id="beak" style="fill:#ffffff;fill-opacity:1;fill-rule:nonzero;opacity:1;stroke:#000000;stroke-linecap:round;stroke-linejoin:round;stroke-miterlimit:10;stroke-opacity:1;stroke-width:2;" d="M24.5,11 C24.5,11,24.5,23,24.5,23"/>
        <path id="right-eye" style="fill:#ffffff;fill-opacity:1;fill-rule:nonzero;opacity:1;stroke:#000000;stroke-linecap:round;stroke-linejoin:round;stroke-miterlimit:10;stroke-opacity:1;stroke-width:2;" d="M28.5,15 C28.5,15,28.5,17,28.5,17"/>
        <path id="left-eye" style="fill:#ffffff;fill-opacity:1;fill-rule:nonzero;opacity:1;stroke:#000000;stroke-linecap:round;stroke-linejoin:round;stroke-miterlimit:10;stroke-opacity:1;stroke-width:2;" d="M20.5,15 C20.5,15,20.5,17,20.5,17"/>
      </g>
    </g>
  </g>
</svg>
