<?xml version="1.0" encoding="utf-8"?>
<svg x="0pt" y="0pt" width="128pt" height="128pt" viewBox="0 0 128 128" xmlns="http://www.w3.org/2000/svg" xmlns:xlink="http://www.w3.org/1999/xlink">
  <!--Generated by AMDN-->
  <g id="Layer_1">
    <path id="Path_3" style="fill:#ffffff;fill-opacity:1;fill-rule:nonzero;opacity:1;stroke:#ed247b;stroke-linecap:round;stroke-linejoin:round;stroke-miterlimit:10;stroke-opacity:1;stroke-width:4;" d="M30.0268,2.00001 C30.0268,2.00001,113.727,2.00001,113.727,2.00001 C113.727,43.3333,113.727,84.6667,113.727,126 C113.727,126,30.0268,126,30.0268,126 C25.916,126,21.9735,124.367,19.0667,121.46 C16.1599,118.553,14.5268,114.611,14.5268,110.5 C14.5268,79.5,14.5268,48.5,14.5268,17.5 C14.5268,13.3892,16.1599,9.44666,19.0667,6.53985 C21.9735,3.63304,25.916,2.00001,30.0268,2.00001 C30.0268,2.00001,30.0268,2.00001,30.0268,2.00001 z"/>
    <g id="Group">
      <g id="Layer_1-1">
        <path id="Compound_Group" style="fill:#fdbf52;fill-opacity:1;fill-rule:evenodd;opacity:1;stroke:none;" d="M67,95.9524 C67,95.9524,67,47.9986,67,47.9986 C67,47.9986,15,47.9986,15,47.9986 C15,47.9986,15,103,15,103 C15,103,17.2,103,17.2,103 C17.2,103,19,100,19,100 C19,100,27,95,27,95 C27,95,67,95.9524,67,95.9524 z"/>
        <path id="Compound_Group-1" style="fill:#ff7bac;fill-opacity:1;fill-rule:evenodd;opacity:1;stroke:none;" d="M26.0606,1.99858 C26.0606,1.99858,67,1.99858,67,1.99858 C67,1.99858,67,48,67,48 C67,48,15,48,15,48 C15,48,15,10.9524,15,10.9524 C15,10.9524,26.0606,1.99858,26.0606,1.99858 z"/>
        <g id="Group-1">
          <g id="Group-2">
            <path id="Path" style="fill:#9e9e9e;fill-opacity:1;fill-rule:nonzero;opacity:1;stroke:#000000;stroke-linecap:round;stroke-linejoin:round;stroke-miterlimit:10;stroke-opacity:1;stroke-width:2;" d="M36.3324,29.7911 C36.3324,29.7911,30.5822,31.7078,30.5822,35.5413 C30.5822,39.3747,36.3324,39.3747,36.3324,39.3747"/>
            <path id="Path_Copy" style="fill:#9e9e9e;fill-opacity:1;fill-rule:nonzero;opacity:1;stroke:#000000;stroke-linecap:round;stroke-linejoin:round;stroke-miterlimit:10;stroke-opacity:1;stroke-width:2;" d="M51.6664,29.7911 C51.6664,29.7911,57.4165,31.7078,57.4165,35.5413 C57.4165,39.3747,51.6664,39.3747,51.6664,39.3747"/>
            <path id="Path-1" style="fill:#ffffff;fill-opacity:1;fill-rule:evenodd;opacity:1;stroke:#000000;stroke-linecap:round;stroke-linejoin:round;stroke-miterlimit:10;stroke-opacity:1;stroke-width:2;" d="M29.6238,11.7564 C29.6238,9.54306,31.3402,7.74875,33.4573,7.74875 C33.4573,7.74875,54.5413,7.74875,54.5413,7.74875 C56.6584,7.74875,58.3747,9.54306,58.3747,11.7564 C58.3747,11.7564,58.3747,25.7834,58.3747,25.7834 C58.3747,27.9967,56.6584,29.7911,54.5413,29.7911 C54.5413,29.7911,33.4573,29.7911,33.4573,29.7911 C31.3402,29.7911,29.6238,27.9967,29.6238,25.7834 C29.6238,25.7834,29.6238,11.7564,29.6238,11.7564 z"/>
            <path id="Path-2" style="fill:#ffffff;fill-opacity:1;fill-rule:nonzero;opacity:1;stroke:#000000;stroke-linecap:round;stroke-linejoin:round;stroke-miterlimit:10;stroke-opacity:1;stroke-width:2;" d="M43.9993,12.5406 C43.9993,12.5406,43.9993,24.0409,43.9993,24.0409"/>
            <path id="Path-3" style="fill:#ffffff;fill-opacity:1;fill-rule:nonzero;opacity:1;stroke:#000000;stroke-linecap:round;stroke-linejoin:round;stroke-miterlimit:10;stroke-opacity:1;stroke-width:2;" d="M47.8327,15.4157 C47.8327,15.4157,47.8327,17.3324,47.8327,17.3324"/>
            <path id="Path_Copy-1" style="fill:#ffffff;fill-opacity:1;fill-rule:nonzero;opacity:1;stroke:#000000;stroke-linecap:round;stroke-linejoin:round;stroke-miterlimit:10;stroke-opacity:1;stroke-width:2;" d="M40.1658,15.4157 C40.1658,15.4157,40.1658,17.3324,40.1658,17.3324"/>
            <path id="Path-4" style="fill:none;opacity:1;stroke:#000000;stroke-linecap:round;stroke-linejoin:round;stroke-miterlimit:10;stroke-opacity:1;stroke-width:2;" d="M51.6662,43.2082 C51.6662,43.2082,49.7495,41.2914,49.7495,41.2914 C49.7495,41.2914,47.8327,43.2082,47.8327,43.2082"/>
            <path id="Path_Copy-2" style="fill:none;opacity:1;stroke:#000000;stroke-linecap:round;stroke-linejoin:round;stroke-miterlimit:10;stroke-opacity:1;stroke-width:2;" d="M40.1658,43.2082 C40.1658,43.2082,38.2491,41.2914,38.2491,41.2914 C38.2491,41.2914,36.3324,43.2082,36.3324,43.2082"/>
            <path id="Path-5" style="fill:#e4e4e4;fill-opacity:1;fill-rule:evenodd;opacity:1;stroke:#000000;stroke-linecap:round;stroke-linejoin:round;stroke-miterlimit:10;stroke-opacity:1;stroke-width:2;" d="M36.3324,29.7911 C36.3324,29.7911,51.6662,29.7911,51.6662,29.7911 C51.6662,29.7911,51.6662,39.3747,51.6662,39.3747 C51.6662,39.3747,36.3324,39.3747,36.3324,39.3747 C36.3324,39.3747,36.3324,29.7911,36.3324,29.7911 z"/>
          </g>
        </g>
      </g>
      <path id="Path_Copy-3" style="fill:#00a79e;fill-opacity:1;fill-rule:evenodd;opacity:1;stroke:none;" d="M66.9989,1.99858 C66.9989,1.99858,113,1.99858,113,1.99858 C113,1.99858,113,48,113,48 C113,48,66.9989,48,66.9989,48 C66.9989,48,66.9989,1.99858,66.9989,1.99858 z"/>
      <g id="Layer_1_Copy">
        <g id="Group-3">
          <g id="Group-4">
            <path id="Path-6" style="fill:#9e9e9e;fill-opacity:1;fill-rule:nonzero;opacity:1;stroke:#000000;stroke-linecap:round;stroke-linejoin:round;stroke-miterlimit:10;stroke-opacity:1;stroke-width:2;" d="M82.3327,29.7911 C82.3327,29.7911,76.5825,31.7078,76.5825,35.5413 C76.5825,39.3747,82.3327,39.3747,82.3327,39.3747"/>
            <path id="Path_Copy-4" style="fill:#9e9e9e;fill-opacity:1;fill-rule:nonzero;opacity:1;stroke:#000000;stroke-linecap:round;stroke-linejoin:round;stroke-miterlimit:10;stroke-opacity:1;stroke-width:2;" d="M97.6667,29.7911 C97.6667,29.7911,103.417,31.7078,103.417,35.5413 C103.417,39.3747,97.6667,39.3747,97.6667,39.3747"/>
            <path id="Path-7" style="fill:#ffffff;fill-opacity:1;fill-rule:evenodd;opacity:1;stroke:#000000;stroke-linecap:round;stroke-linejoin:round;stroke-miterlimit:10;stroke-opacity:1;stroke-width:2;" d="M75.6242,11.7564 C75.6242,9.54306,77.3405,7.74875,79.4576,7.74875 C79.4576,7.74875,100.542,7.74875,100.542,7.74875 C102.659,7.74875,104.375,9.54306,104.375,11.7564 C104.375,11.7564,104.375,25.7834,104.375,25.7834 C104.375,27.9967,102.659,29.7911,100.542,29.7911 C100.542,29.7911,79.4576,29.7911,79.4576,29.7911 C77.3405,29.7911,75.6242,27.9967,75.6242,25.7834 C75.6242,25.7834,75.6242,11.7564,75.6242,11.7564 z"/>
            <path id="Path-8" style="fill:#ffffff;fill-opacity:1;fill-rule:nonzero;opacity:1;stroke:#000000;stroke-linecap:round;stroke-linejoin:round;stroke-miterlimit:10;stroke-opacity:1;stroke-width:2;" d="M91.9163,12.5406 C91.9163,12.5406,91.9163,24.0409,91.9163,24.0409"/>
            <path id="Path-9" style="fill:#ffffff;fill-opacity:1;fill-rule:nonzero;opacity:1;stroke:#000000;stroke-linecap:round;stroke-linejoin:round;stroke-miterlimit:10;stroke-opacity:1;stroke-width:2;" d="M95.7498,16.374 C95.7498,16.374,95.7498,18.2907,95.7498,18.2907"/>
            <path id="Path_Copy-5" style="fill:#ffffff;fill-opacity:1;fill-rule:nonzero;opacity:1;stroke:#000000;stroke-linecap:round;stroke-linejoin:round;stroke-miterlimit:10;stroke-opacity:1;stroke-width:2;" d="M88.0829,16.374 C88.0829,16.374,88.0829,18.2907,88.0829,18.2907"/>
            <path id="Path-10" style="fill:none;opacity:1;stroke:#000000;stroke-linecap:round;stroke-linejoin:round;stroke-miterlimit:10;stroke-opacity:1;stroke-width:2;" d="M97.6665,43.2082 C97.6665,43.2082,95.7498,41.2914,95.7498,41.2914 C95.7498,41.2914,93.8331,43.2082,93.8331,43.2082"/>
            <path id="Path_Copy-6" style="fill:none;opacity:1;stroke:#000000;stroke-linecap:round;stroke-linejoin:round;stroke-miterlimit:10;stroke-opacity:1;stroke-width:2;" d="M86.1662,43.2082 C86.1662,43.2082,84.2494,41.2914,84.2494,41.2914 C84.2494,41.2914,82.3327,43.2082,82.3327,43.2082"/>
            <path id="Path-11" style="fill:#e4e4e4;fill-opacity:1;fill-rule:evenodd;opacity:1;stroke:#000000;stroke-linecap:round;stroke-linejoin:round;stroke-miterlimit:10;stroke-opacity:1;stroke-width:2;" d="M82.3327,29.7911 C82.3327,29.7911,97.6665,29.7911,97.6665,29.7911 C97.6665,29.7911,97.6665,39.3747,97.6665,39.3747 C97.6665,39.3747,82.3327,39.3747,82.3327,39.3747 C82.3327,39.3747,82.3327,29.7911,82.3327,29.7911 z"/>
          </g>
        </g>
      </g>
      <g id="Layer_1_Copy-1">
        <g id="Group-5">
          <g id="Group-6">
            <path id="Path-12" style="fill:#9e9e9e;fill-opacity:1;fill-rule:nonzero;opacity:1;stroke:#000000;stroke-linecap:round;stroke-linejoin:round;stroke-miterlimit:10;stroke-opacity:1;stroke-width:2;" d="M36.3324,75.7911 C36.3324,75.7911,30.5822,77.7078,30.5822,81.5413 C30.5822,85.3747,36.3324,85.3747,36.3324,85.3747"/>
            <path id="Path_Copy-7" style="fill:#9e9e9e;fill-opacity:1;fill-rule:nonzero;opacity:1;stroke:#000000;stroke-linecap:round;stroke-linejoin:round;stroke-miterlimit:10;stroke-opacity:1;stroke-width:2;" d="M51.6664,75.7911 C51.6664,75.7911,57.4165,77.7078,57.4165,81.5413 C57.4165,85.3747,51.6664,85.3747,51.6664,85.3747"/>
            <path id="Path-13" style="fill:#e4e4e4;fill-opacity:1;fill-rule:evenodd;opacity:1;stroke:#000000;stroke-linecap:round;stroke-linejoin:round;stroke-miterlimit:10;stroke-opacity:1;stroke-width:2;" d="M36.3324,75.7911 C36.3324,75.7911,51.6662,75.7911,51.6662,75.7911 C51.6662,75.7911,51.6662,85.3747,51.6662,85.3747 C51.6662,85.3747,36.3324,85.3747,36.3324,85.3747 C36.3324,85.3747,36.3324,75.7911,36.3324,75.7911 z"/>
            <path id="Path-14" style="fill:#ffffff;fill-opacity:1;fill-rule:evenodd;opacity:1;stroke:#000000;stroke-linecap:round;stroke-linejoin:round;stroke-miterlimit:10;stroke-opacity:1;stroke-width:2;" d="M28.5818,61.4687 C28.1761,59.2929,29.5344,57.2144,31.6157,56.8263 C31.6157,56.8263,52.3424,52.9615,52.3424,52.9615 C54.4237,52.5734,56.4398,54.0227,56.8455,56.1986 C56.8455,56.1986,59.4167,69.9879,59.4167,69.9879 C59.8225,72.1637,58.4641,74.2423,56.3829,74.6303 C56.3829,74.6303,35.6561,78.4951,35.6561,78.4951 C33.5749,78.8832,31.5587,77.4339,31.153,75.258 C31.153,75.258,28.5818,61.4687,28.5818,61.4687 z"/>
            <path id="Path-15" style="fill:#ffffff;fill-opacity:1;fill-rule:nonzero;opacity:1;stroke:#000000;stroke-linecap:round;stroke-linejoin:round;stroke-miterlimit:10;stroke-opacity:1;stroke-width:2;" d="M42.8574,59.6045 C42.8574,59.6045,44.9655,70.91,44.9655,70.91"/>
            <path id="Path-16" style="fill:#ffffff;fill-opacity:1;fill-rule:nonzero;opacity:1;stroke:#000000;stroke-linecap:round;stroke-linejoin:round;stroke-miterlimit:10;stroke-opacity:1;stroke-width:2;" d="M47.3286,62.6703 C47.3286,62.6703,47.6799,64.5546,47.6799,64.5546"/>
            <path id="Path_Copy-8" style="fill:#ffffff;fill-opacity:1;fill-rule:nonzero;opacity:1;stroke:#000000;stroke-linecap:round;stroke-linejoin:round;stroke-miterlimit:10;stroke-opacity:1;stroke-width:2;" d="M39.7916,64.0757 C39.7916,64.0757,40.1429,65.9599,40.1429,65.9599"/>
            <path id="Path-17" style="fill:none;opacity:1;stroke:#000000;stroke-linecap:round;stroke-linejoin:round;stroke-miterlimit:10;stroke-opacity:1;stroke-width:2;" d="M51.6662,89.2082 C51.6662,89.2082,49.7495,87.2915,49.7495,87.2915 C49.7495,87.2915,47.8327,89.2082,47.8327,89.2082"/>
            <path id="Path_Copy-9" style="fill:none;opacity:1;stroke:#000000;stroke-linecap:round;stroke-linejoin:round;stroke-miterlimit:10;stroke-opacity:1;stroke-width:2;" d="M40.1658,89.2082 C40.1658,89.2082,38.2491,87.2915,38.2491,87.2915 C38.2491,87.2915,36.3324,89.2082,36.3324,89.2082"/>
          </g>
        </g>
      </g>
      <path id="Path_Copy_1" style="fill:#ff4141;fill-opacity:1;fill-rule:evenodd;opacity:1;stroke:none;" d="M66.9989,47.9986 C66.9989,47.9986,113,47.9986,113,47.9986 C113,47.9986,113,94,113,94 C113,94,66.9989,94,66.9989,94 C66.9989,94,66.9989,47.9986,66.9989,47.9986 z"/>
      <g id="Layer_1_Copy_1">
        <g id="Group-7">
          <g id="Group-8">
            <path id="Path-18" style="fill:#9e9e9e;fill-opacity:1;fill-rule:nonzero;opacity:1;stroke:#000000;stroke-linecap:round;stroke-linejoin:round;stroke-miterlimit:10;stroke-opacity:1;stroke-width:2;" d="M82.3327,75.7911 C82.3327,75.7911,76.5825,77.7078,76.5825,81.5413 C76.5825,85.3747,82.3327,85.3747,82.3327,85.3747"/>
            <path id="Path_Copy-10" style="fill:#9e9e9e;fill-opacity:1;fill-rule:nonzero;opacity:1;stroke:#000000;stroke-linecap:round;stroke-linejoin:round;stroke-miterlimit:10;stroke-opacity:1;stroke-width:2;" d="M97.6667,75.7911 C97.6667,75.7911,103.417,77.7078,103.417,81.5413 C103.417,85.3747,97.6667,85.3747,97.6667,85.3747"/>
            <path id="Path-19" style="fill:#e4e4e4;fill-opacity:1;fill-rule:evenodd;opacity:1;stroke:#000000;stroke-linecap:round;stroke-linejoin:round;stroke-miterlimit:10;stroke-opacity:1;stroke-width:2;" d="M82.3327,75.7911 C82.3327,75.7911,97.6665,75.7911,97.6665,75.7911 C97.6665,75.7911,97.6665,85.3747,97.6665,85.3747 C97.6665,85.3747,82.3327,85.3747,82.3327,85.3747 C82.3327,85.3747,82.3327,75.7911,82.3327,75.7911 z"/>
            <path id="Path-20" style="fill:#ffffff;fill-opacity:1;fill-rule:evenodd;opacity:1;stroke:#000000;stroke-linecap:round;stroke-linejoin:round;stroke-miterlimit:10;stroke-opacity:1;stroke-width:2;" d="M75.6242,58.7148 C75.6242,56.5014,77.3405,54.7071,79.4576,54.7071 C79.4576,54.7071,100.542,54.7071,100.542,54.7071 C102.659,54.7071,104.375,56.5014,104.375,58.7148 C104.375,58.7148,104.375,72.7418,104.375,72.7418 C104.375,74.9551,102.659,76.7495,100.542,76.7495 C100.542,76.7495,79.4576,76.7495,79.4576,76.7495 C77.3405,76.7495,75.6242,74.9551,75.6242,72.7418 C75.6242,72.7418,75.6242,58.7148,75.6242,58.7148 z"/>
            <path id="Path-21" style="fill:#ffffff;fill-opacity:1;fill-rule:nonzero;opacity:1;stroke:#000000;stroke-linecap:round;stroke-linejoin:round;stroke-miterlimit:10;stroke-opacity:1;stroke-width:2;" d="M89.9996,59.499 C89.9996,59.499,89.9996,70.9993,89.9996,70.9993"/>
            <path id="Path-22" style="fill:#ffffff;fill-opacity:1;fill-rule:nonzero;opacity:1;stroke:#000000;stroke-linecap:round;stroke-linejoin:round;stroke-miterlimit:10;stroke-opacity:1;stroke-width:2;" d="M93.8331,64.2908 C93.8331,64.2908,93.8331,66.2075,93.8331,66.2075"/>
            <path id="Path_Copy-11" style="fill:#ffffff;fill-opacity:1;fill-rule:nonzero;opacity:1;stroke:#000000;stroke-linecap:round;stroke-linejoin:round;stroke-miterlimit:10;stroke-opacity:1;stroke-width:2;" d="M86.1662,64.2908 C86.1662,64.2908,86.1662,66.2075,86.1662,66.2075"/>
            <path id="Path-23" style="fill:none;opacity:1;stroke:#000000;stroke-linecap:round;stroke-linejoin:round;stroke-miterlimit:10;stroke-opacity:1;stroke-width:2;" d="M97.6665,89.2082 C97.6665,89.2082,95.7498,87.2915,95.7498,87.2915 C95.7498,87.2915,93.8331,89.2082,93.8331,89.2082"/>
            <path id="Path_Copy-12" style="fill:none;opacity:1;stroke:#000000;stroke-linecap:round;stroke-linejoin:round;stroke-miterlimit:10;stroke-opacity:1;stroke-width:2;" d="M86.1662,89.2082 C86.1662,89.2082,84.2494,87.2915,84.2494,87.2915 C84.2494,87.2915,82.3327,89.2082,82.3327,89.2082"/>
          </g>
        </g>
      </g>
    </g>
    <path id="Path_3_Copy" style="fill:none;opacity:1;stroke:#ff1c24;stroke-linecap:round;stroke-linejoin:round;stroke-miterlimit:10;stroke-opacity:1;stroke-width:4;" d="M30.0268,2.00001 C30.0268,2.00001,113.727,2.00001,113.727,2.00001 C113.727,43.3333,113.727,84.6667,113.727,126 C113.727,126,30.0268,126,30.0268,126 C25.916,126,21.9735,124.367,19.0667,121.46 C16.1599,118.553,14.5268,114.611,14.5268,110.5 C14.5268,79.5,14.5268,48.5,14.5268,17.5 C14.5268,13.3892,16.1599,9.44666,19.0667,6.53985 C21.9735,3.63304,25.916,2.00001,30.0268,2.00001 C30.0268,2.00001,30.0268,2.00001,30.0268,2.00001 z"/>
    <path id="Path_2" style="fill:none;opacity:1;stroke:#ff1c24;stroke-linecap:round;stroke-linejoin:round;stroke-miterlimit:10;stroke-opacity:1;stroke-width:4;" d="M14.5268,110.5 C14.5268,106.389,16.1599,102.447,19.0667,99.5398 C21.9735,96.633,25.916,95,30.0268,95 C30.0268,95,113.727,95,113.727,95"/>
  </g>
</svg>
