<svg x="0pt" y="0pt" width="24pt" height="24pt" viewBox="0 0 24 24" xmlns="http://www.w3.org/2000/svg" xmlns:xlink="http://www.w3.org/1999/xlink">
  <g id="Layer_1">
    <path id="Compound_Group" style="fill:none;opacity:1;stroke:#000000;stroke-linecap:round;stroke-linejoin:round;stroke-miterlimit:10;stroke-opacity:1;stroke-width:1;" d="M4.78145,6.74679 C6.01955,7.25963,7.25963,6.01955,6.74679,4.78145 C6.74679,4.78145,6.24303,3.56525,6.24303,3.56525 C5.92511,2.79774,6.28959,1.91782,7.0571,1.59991 C7.0571,1.59991,8.14118,1.15087,8.14118,1.15087 C8.90869,0.832951,9.78861,1.19743,10.1065,1.96494 C10.1065,1.96494,10.6106,3.18196,10.6106,3.18196 C11.1235,4.42006,12.8772,4.42006,13.3901,3.18196 C13.3901,3.18196,13.8938,1.96576,13.8938,1.96576 C14.2117,1.19825,15.0916,0.833775,15.8592,1.15169 C15.8592,1.15169,16.9432,1.60073,16.9432,1.60073 C17.7108,1.91865,18.0752,2.79856,17.7573,3.56608 C17.7573,3.56608,17.1507,5.03048,17.1507,5.03048 C16.6379,6.26858,17.878,7.50866,19.1161,6.99583 C19.1161,6.99583,20.5078,6.41936,20.5078,6.41936 C21.2753,6.10145,22.1552,6.46592,22.4731,7.23344 C22.4731,7.23344,22.9222,8.31751,22.9222,8.31751 C23.2401,9.08503,22.8756,9.96494,22.1081,10.2829 C22.1081,10.2829,21.0682,10.7136,21.0682,10.7136 C19.8301,11.2264,19.8301,12.9802,21.0682,13.493 C21.0682,13.493,22.0351,13.8935,22.0351,13.8935 C22.8026,14.2114,23.167,15.0913,22.8491,15.8588 C22.8491,15.8588,22.4001,16.9429,22.4001,16.9429 C22.0822,17.7104,21.2023,18.0749,20.4347,17.757 C20.4347,17.757,19.2186,17.2532,19.2186,17.2532 C17.9805,16.7404,16.7404,17.9805,17.2532,19.2186 C17.2532,19.2186,17.757,20.4347,17.757,20.4347 C18.0749,21.2023,17.7104,22.0822,16.9429,22.4001 C16.9429,22.4001,15.8588,22.8491,15.8588,22.8491 C15.0913,23.167,14.2114,22.8026,13.8935,22.0351 C13.8935,22.0351,13.3901,20.8197,13.3901,20.8197 C12.8772,19.5816,11.1235,19.5816,10.6106,20.8197 C10.6106,20.8197,10.1069,22.0359,10.1069,22.0359 C9.78895,22.8034,8.90904,23.1679,8.14152,22.85 C8.14152,22.85,7.05744,22.4009,7.05744,22.4009 C6.28993,22.083,5.92546,21.2031,6.24337,20.4356 C6.24337,20.4356,6.64432,19.4676,6.64432,19.4676 C7.15716,18.2295,5.91708,16.9894,4.67898,17.5022 C4.67898,17.5022,3.63829,17.9333,3.63829,17.9333 C2.87078,18.2512,1.99086,17.8867,1.67295,17.1192 C1.67295,17.1192,1.22391,16.0352,1.22391,16.0352 C0.905991,15.2676,1.27046,14.3877,2.03798,14.0698 C2.03798,14.0698,3.43051,13.493,3.43051,13.493 C4.66861,12.9802,4.66861,11.2264,3.43051,10.7136 C3.43051,10.7136,1.96494,10.1065,1.96494,10.1065 C1.19742,9.78861,0.83295,8.90869,1.15087,8.14118 C1.15087,8.14118,1.5999,7.0571,1.5999,7.0571 C1.91782,6.28959,2.79774,5.92511,3.56525,6.24303 C3.56525,6.24303,4.78145,6.74679,4.78145,6.74679 z M14.3097,11.0433 C14.8381,12.3189,14.2323,13.7813,12.9567,14.3097 C11.6811,14.8381,10.2187,14.2323,9.6903,12.9567 C9.16193,11.6811,9.76768,10.2187,11.0433,9.6903 C12.3189,9.16193,13.7813,9.76768,14.3097,11.0433 z"/>
  </g>
</svg>
